<svg xmlns="http://www.w3.org/2000/svg" viewBox="0 0 212.19 160.47"><defs><style>.cls-1{fill:#24d359;}.cls-2,.cls-3{fill:#008831;}.cls-27,.cls-3,.cls-31,.cls-56,.cls-64{opacity:0.5;}.cls-4{fill:#97f65c;}.cls-5{fill:#181828;}.cls-44,.cls-45,.cls-6{fill:#fff;}.cls-7{fill:#dadadc;}.cls-8,.cls-9{fill:#bbbbc8;}.cls-9{opacity:0.4;}.cls-10{fill:#e5e5ee;}.cls-11{opacity:0.1;}.cls-12{fill:#e67868;}.cls-13{fill:#dd6b58;}.cls-14{fill:#fbfbff;}.cls-15,.cls-19,.cls-20,.cls-21,.cls-29,.cls-30,.cls-32,.cls-33,.cls-42,.cls-48,.cls-49,.cls-50,.cls-51,.cls-52,.cls-53,.cls-65,.cls-66,.cls-67,.cls-68{fill:none;}.cls-15,.cls-19,.cls-42{stroke:#1e1e30;}.cls-15,.cls-19,.cls-20,.cls-21,.cls-29,.cls-30,.cls-32,.cls-33,.cls-42,.cls-48,.cls-49,.cls-50,.cls-51,.cls-52,.cls-53,.cls-65,.cls-66{stroke-linecap:round;stroke-linejoin:round;}.cls-15,.cls-29,.cls-30,.cls-32,.cls-33{stroke-width:1.14px;}.cls-16{fill:#9ef095;}.cls-17{fill:#56d844;}.cls-18{fill:#a0ede7;}.cls-19{stroke-width:0.57px;}.cls-20,.cls-29,.cls-52,.cls-53,.cls-66{stroke:#fff;}.cls-20,.cls-21,.cls-42{stroke-width:0.86px;}.cls-21{stroke:#dffadc;}.cls-22{opacity:0.15;}.cls-23{fill:#113c47;}.cls-24{fill:#dffadc;}.cls-25{fill:#4385f2;}.cls-26,.cls-27{fill:#2564bf;}.cls-28,.cls-56,.cls-57{fill:#c6dbff;}.cls-30{stroke:#efefef;}.cls-31{fill:#3771c4;}.cls-32{stroke:#b2c9d6;}.cls-33,.cls-67{stroke:#fc2b79;}.cls-34{fill:#3b5e66;}.cls-35{fill:#9f9ec3;}.cls-36{fill:#c8c8d6;}.cls-37{fill:#dcdfea;}.cls-38{fill:#61838e;}.cls-39{fill:#7495a2;}.cls-40,.cls-46{fill:#385159;}.cls-40{opacity:0.8;}.cls-41{fill:#c3eefc;}.cls-43{fill:#5cbddf;}.cls-44{opacity:0.59;}.cls-45{opacity:0.3;}.cls-47{fill:#1e1e30;}.cls-48,.cls-51{stroke:#5cbddf;}.cls-48,.cls-49{stroke-width:2.57px;}.cls-49{stroke:#7495a2;}.cls-50{stroke:#385159;}.cls-50,.cls-65,.cls-66,.cls-67,.cls-68{stroke-width:1.43px;}.cls-51{stroke-width:2px;}.cls-52{stroke-width:1.71px;}.cls-53{stroke-width:2.28px;}.cls-54{fill:#fc2b79;}.cls-55{fill:#9416d2;}.cls-57{opacity:0.25;}.cls-58{fill:#ffc9bd;}.cls-59{fill:#fb927d;}.cls-60{fill:#ffe992;}.cls-61{fill:#ffcd2c;}.cls-62{fill:#fff6d3;}.cls-63{opacity:0.6;}.cls-65{stroke:#9f9ec3;}.cls-67,.cls-68{stroke-miterlimit:10;}.cls-68{stroke:#fdcd30;}.cls-69{fill:#58ebff;}</style></defs><title>Asset 8</title><g id="Layer_2" data-name="Layer 2"><g id="Layer_1-2" data-name="Layer 1"><path class="cls-1" d="M128.19,27.78l-3.74,1.82,3.6,1.77a44.87,44.87,0,0,1-3.2,13.46s-7.6-8.6-9.38-20.34,2.94-22.21,2.94-22.21,7.6,8.59,9.38,20.34A38.47,38.47,0,0,1,128.19,27.78Z"/><path class="cls-2" d="M128.2,31.74a52.87,52.87,0,0,1-3.29,11.4,52,52,0,0,1-5.78-8.53A24.86,24.86,0,0,0,128.2,31.74Z"/><path class="cls-3" d="M128.39,31.13c0,.28,0,.56-.08.84a29.63,29.63,0,0,1-9.25,2.83,40,40,0,0,1-2.88-8.52c1.53,1.68,4.32,3.49,9.16,3.36Z"/><ellipse class="cls-2" cx="118.79" cy="26.83" rx="0.55" ry="1.17" transform="translate(69.37 138.13) rotate(-78.78)"/><circle class="cls-2" cx="120.46" cy="26.01" r="0.37"/><path class="cls-4" d="M124.21,37.51a.28.28,0,0,1-.28-.23L119.71,9.35a.27.27,0,0,1,.23-.31.27.27,0,0,1,.31.23l4.23,27.92a.28.28,0,0,1-.23.32Z"/><path class="cls-5" d="M123.66,37.59a.26.26,0,0,1-.27-.23L119.16,9.44a.29.29,0,0,1,.23-.32.27.27,0,0,1,.31.23l4.23,27.93a.27.27,0,0,1-.23.31Z"/><path class="cls-6" d="M116.23,16.4h0a.47.47,0,0,1-.42-.5c0-.32.72-7.87,2.61-12.64A.46.46,0,0,1,119,3a.46.46,0,0,1,.26.59c-1.85,4.65-2.55,12.3-2.55,12.38A.46.46,0,0,1,116.23,16.4Z"/><path class="cls-5" d="M125,45.26a.66.66,0,0,1-.49-.22A44.3,44.3,0,0,1,115,24.37a44.09,44.09,0,0,1,3-22.56.63.63,0,0,1,1.07-.16,44.24,44.24,0,0,1,9.53,20.67,37.31,37.31,0,0,1,.41,5.24.65.65,0,0,1-.37.59l-2.55,1.24,2.42,1.19a.65.65,0,0,1,.36.63,45.26,45.26,0,0,1-3.25,13.67.64.64,0,0,1-.5.37ZM118.75,3.32c-1.08,2.86-3.9,11.49-2.48,20.86s6.67,16.78,8.55,19.18a46.11,46.11,0,0,0,2.71-11.82L124.32,30a.63.63,0,0,1-.36-.58.66.66,0,0,1,.36-.58l3.37-1.64a35.28,35.28,0,0,0-.39-4.66C125.88,13.13,120.63,5.72,118.75,3.32Z"/><ellipse class="cls-4" cx="117.95" cy="19.31" rx="0.74" ry="0.37" transform="translate(56.95 122.1) rotate(-68.61)"/><ellipse class="cls-4" cx="119.07" cy="7.31" rx="0.32" ry="0.64" transform="translate(0.25 17.91) rotate(-8.61)"/><path class="cls-4" d="M118.37,20.3a.28.28,0,0,0-.18,0h-.1a.5.5,0,0,0-.4.5,1.2,1.2,0,0,0,.13.36c.07.17,0,.19-.08.34a.56.56,0,0,0,.18.67.75.75,0,0,0,1.17-.46A1.35,1.35,0,0,0,118.37,20.3Z"/><path class="cls-4" d="M118.34,13.24a.28.28,0,0,1,.18,0l.1,0a.5.5,0,0,1,.35.53.91.91,0,0,1-.15.35c-.09.17,0,.19.05.35a.56.56,0,0,1-.23.65.75.75,0,0,1-1.13-.55A1.34,1.34,0,0,1,118.34,13.24Z"/><circle class="cls-4" cx="118.08" cy="12.77" r="0.18"/><path class="cls-5" d="M121.26,21.3a.28.28,0,0,1-.24-.13.27.27,0,0,1,.1-.38l3.36-2a.28.28,0,1,1,.28.48l-3.36,2Z"/><path class="cls-5" d="M120.51,16.38a.27.27,0,0,1-.25-.15.28.28,0,0,1,.13-.37l2-1a.27.27,0,0,1,.37.12.27.27,0,0,1-.12.37l-2,1A.31.31,0,0,1,120.51,16.38Z"/><path class="cls-5" d="M122.72,32.64h0l-2.24-.38a.28.28,0,0,1,.1-.55l2.23.39a.27.27,0,0,1,.22.32A.28.28,0,0,1,122.72,32.64Z"/><path class="cls-5" d="M121.55,25h-.07l-3.77-1a.28.28,0,0,1-.2-.34.27.27,0,0,1,.33-.2l3.78,1a.28.28,0,0,1-.07.55Z"/><path class="cls-1" d="M133.89,38.1l3.74,1.82L134,41.69a44.87,44.87,0,0,0,3.2,13.46s7.6-8.6,9.38-20.34-2.94-22.21-2.94-22.21-7.59,8.59-9.37,20.34A35.43,35.43,0,0,0,133.89,38.1Z"/><path class="cls-2" d="M133.87,42.06a53.57,53.57,0,0,0,3.29,11.4,51.22,51.22,0,0,0,5.78-8.53A25.12,25.12,0,0,1,133.87,42.06Z"/><path class="cls-3" d="M133.68,41.45c0,.28,0,.56.08.84A29.63,29.63,0,0,0,143,45.12a39.43,39.43,0,0,0,2.88-8.52c-1.53,1.68-4.31,3.49-9.16,3.36Z"/><ellipse class="cls-2" cx="143.29" cy="37.15" rx="1.17" ry="0.55" transform="translate(-4.49 28.58) rotate(-11.22)"/><circle class="cls-2" cx="141.62" cy="36.33" r="0.37"/><path class="cls-4" d="M137.87,47.83h0a.27.27,0,0,1-.23-.32l4.22-27.92a.29.29,0,0,1,.32-.23.27.27,0,0,1,.23.31L138.14,47.6A.28.28,0,0,1,137.87,47.83Z"/><path class="cls-5" d="M138.42,47.91h0a.27.27,0,0,1-.23-.31l4.23-27.93a.27.27,0,0,1,.31-.23.29.29,0,0,1,.24.32l-4.23,27.92A.27.27,0,0,1,138.42,47.91Z"/><path class="cls-6" d="M145.85,26.72a.46.46,0,0,1-.46-.42c0-.08-.71-7.74-2.55-12.38a.46.46,0,1,1,.85-.34c1.9,4.77,2.59,12.32,2.61,12.64a.46.46,0,0,1-.41.5Z"/><path class="cls-5" d="M137.07,55.58H137a.63.63,0,0,1-.49-.37,45.1,45.1,0,0,1-3.26-13.67.65.65,0,0,1,.36-.63L136,39.71l-2.55-1.24a.66.66,0,0,1-.36-.59,37.58,37.58,0,0,1,.4-5.25A44.22,44.22,0,0,1,143,12a.65.65,0,0,1,.58-.21.68.68,0,0,1,.49.38,44.26,44.26,0,0,1,3,22.56,44.08,44.08,0,0,1-9.53,20.67A.64.64,0,0,1,137.07,55.58Zm-2.52-13.72a46.11,46.11,0,0,0,2.71,11.82c1.88-2.4,7.13-9.81,8.55-19.18s-1.41-18-2.49-20.86c-1.88,2.41-7.13,9.82-8.55,19.19a35.28,35.28,0,0,0-.39,4.66l3.37,1.64a.64.64,0,0,1,0,1.16Z"/><ellipse class="cls-4" cx="144.12" cy="29.63" rx="0.37" ry="0.74" transform="translate(-0.88 54.6) rotate(-21.39)"/><ellipse class="cls-4" cx="143.01" cy="17.63" rx="0.64" ry="0.32" transform="translate(104.17 156.38) rotate(-81.39)"/><path class="cls-4" d="M143.71,30.62a.25.25,0,0,1,.17,0H144a.5.5,0,0,1,.39.5.83.83,0,0,1-.13.36c-.07.17,0,.19.09.34a.58.58,0,0,1-.19.67A.75.75,0,0,1,143,32,1.37,1.37,0,0,1,143.71,30.62Z"/><path class="cls-4" d="M143.73,23.55a.32.32,0,0,0-.17,0l-.11,0a.5.5,0,0,0-.35.53.93.93,0,0,0,.16.35c.08.17,0,.19-.06.35a.56.56,0,0,0,.23.65.75.75,0,0,0,1.13-.55A1.35,1.35,0,0,0,143.73,23.55Z"/><circle class="cls-4" cx="144" cy="23.09" r="0.18"/><path class="cls-5" d="M140.82,31.62a.23.23,0,0,1-.14,0l-3.37-2a.28.28,0,0,1-.09-.38.27.27,0,0,1,.37-.1l3.37,2a.29.29,0,0,1,.1.38A.29.29,0,0,1,140.82,31.62Z"/><path class="cls-5" d="M141.56,26.7a.27.27,0,0,1-.12,0l-2-1a.27.27,0,0,1-.12-.37.28.28,0,0,1,.37-.12l2,1a.27.27,0,0,1,.12.37A.27.27,0,0,1,141.56,26.7Z"/><path class="cls-5" d="M139.35,43a.28.28,0,0,1-.27-.23.27.27,0,0,1,.22-.32l2.24-.39a.28.28,0,0,1,.32.23.29.29,0,0,1-.23.32L139.4,43Z"/><path class="cls-5" d="M140.52,35.35a.3.3,0,0,1-.27-.21.29.29,0,0,1,.2-.34l3.78-1a.28.28,0,1,1,.14.54l-3.78,1Z"/><path class="cls-1" d="M137.23,29.43l-4,1.25,3.3,2.29a44.71,44.71,0,0,1-5.18,12.82s-6.23-9.63-6.23-21.51,6.23-21.52,6.23-21.52,6.23,9.64,6.23,21.52A35.86,35.86,0,0,1,137.23,29.43Z"/><path class="cls-2" d="M136.65,33.35a53,53,0,0,1-5,10.78,51.58,51.58,0,0,1-4.43-9.29A24.86,24.86,0,0,0,136.65,33.35Z"/><path class="cls-3" d="M136.93,32.78c-.06.28-.13.55-.2.82A30,30,0,0,1,127.16,35a40.42,40.42,0,0,1-1.57-8.86c1.26,1.89,3.74,4.1,8.55,4.69Z"/><ellipse class="cls-2" cx="128.08" cy="27.09" rx="0.55" ry="1.17" transform="translate(59.15 138.39) rotate(-70.17)"/><circle class="cls-2" cx="129.85" cy="26.54" r="0.37"/><path class="cls-4" d="M131.88,38.47a.29.29,0,0,1-.28-.28V10a.28.28,0,1,1,.56,0V38.19A.29.29,0,0,1,131.88,38.47Z"/><path class="cls-5" d="M131.33,38.47a.29.29,0,0,1-.28-.28V10a.29.29,0,0,1,.28-.28.28.28,0,0,1,.27.28V38.19A.28.28,0,0,1,131.33,38.47Z"/><path class="cls-6" d="M127.18,16.4h-.11a.47.47,0,0,1-.34-.56c.08-.31,1.89-7.67,4.48-12.1a.47.47,0,0,1,.63-.17.46.46,0,0,1,.16.63c-2.51,4.32-4.35,11.78-4.37,11.86A.46.46,0,0,1,127.18,16.4Z"/><path class="cls-5" d="M131.57,46.25A.63.63,0,0,1,131,46a44.19,44.19,0,0,1-6.34-21.87A44.18,44.18,0,0,1,131,2.23a.64.64,0,0,1,.54-.3h0a.66.66,0,0,1,.54.3,44.22,44.22,0,0,1,6.33,21.86,36.19,36.19,0,0,1-.39,5.25.64.64,0,0,1-.44.53l-2.71.85,2.21,1.53a.65.65,0,0,1,.27.68,45.09,45.09,0,0,1-5.27,13A.65.65,0,0,1,131.57,46.25Zm0-42.4C130.07,6.5,126,14.62,126,24.09s4.09,17.6,5.59,20.25A46.49,46.49,0,0,0,136,33.06l-2.94-2a.65.65,0,0,1-.27-.63.67.67,0,0,1,.44-.52l3.58-1.12a35.59,35.59,0,0,0,.32-4.67C137.15,14.62,133.07,6.5,131.57,3.85Zm5.85,25.4Z"/><ellipse class="cls-4" cx="128.38" cy="19.53" rx="0.74" ry="0.37" transform="translate(47.27 120.95) rotate(-60)"/><ellipse class="cls-4" cx="131.28" cy="7.83" rx="0.32" ry="0.64"/><path class="cls-4" d="M128.64,20.57a.27.27,0,0,0-.17,0h-.11a.49.49,0,0,0-.46.44.94.94,0,0,0,.07.37c.05.18,0,.19-.13.33a.56.56,0,0,0,.08.68.74.74,0,0,0,1.23-.28A1.36,1.36,0,0,0,128.64,20.57Z"/><path class="cls-4" d="M129.67,13.58a.34.34,0,0,1,.18,0l.1,0a.51.51,0,0,1,.26.58.83.83,0,0,1-.2.32c-.11.15,0,.19,0,.35a.56.56,0,0,1-.32.61.75.75,0,0,1-1-.71A1.37,1.37,0,0,1,129.67,13.58Z"/><circle class="cls-4" cx="129.49" cy="13.08" r="0.18"/><path class="cls-5" d="M131.39,22a.3.3,0,0,1-.26-.17.28.28,0,0,1,.16-.36L134.91,20a.29.29,0,0,1,.36.16.28.28,0,0,1-.15.36L131.49,22Z"/><path class="cls-5" d="M131.39,17a.27.27,0,0,1-.09-.53l2.15-.72a.28.28,0,0,1,.35.17.27.27,0,0,1-.17.35l-2.15.72Z"/><path class="cls-5" d="M131.14,33.43l-.08,0-2.15-.72a.26.26,0,0,1-.18-.34.28.28,0,0,1,.35-.18l2.15.72a.28.28,0,0,1,.18.35A.29.29,0,0,1,131.14,33.43Z"/><path class="cls-5" d="M131.13,25.73a.2.2,0,0,1-.11,0l-3.59-1.53a.28.28,0,0,1-.15-.36.29.29,0,0,1,.37-.15l3.59,1.54a.27.27,0,0,1,.14.36A.28.28,0,0,1,131.13,25.73Z"/><path class="cls-7" d="M117.88,45.15h27.46a0,0,0,0,1,0,0v8.57A13.73,13.73,0,0,1,131.6,67.45h0a13.73,13.73,0,0,1-13.73-13.73V45.15a0,0,0,0,1,0,0Z"/><path class="cls-8" d="M145.33,45.15v8.57a13.73,13.73,0,0,1-25.25,7.46,13.73,13.73,0,0,0,21.2-11.52V45.15Z"/><path class="cls-9" d="M141.46,45.15v8.57c0,7.58-5.2,13.73-11.62,13.73-4.09,0-7.68-2.5-9.75-6.27a10.31,10.31,0,0,0,6.32,2.21c6.42,0,11.62-6.14,11.62-13.73V45.15Z"/><path class="cls-5" d="M131.7,68.18a14.39,14.39,0,0,1-14.38-14.37V45.24a.65.65,0,0,1,.65-.65h27.46a.65.65,0,0,1,.64.65v8.57A14.39,14.39,0,0,1,131.7,68.18Zm-13.09-22.3v7.93a13.09,13.09,0,0,0,26.17,0V45.88Z"/><ellipse class="cls-10" cx="124.49" cy="50.87" rx="4.48" ry="3.32" transform="translate(-9.97 53.26) rotate(-23.25)"/><path class="cls-5" d="M126,48.56h-7.74a.28.28,0,0,1,0-.56H126a.28.28,0,0,1,0,.56Z"/><path class="cls-5" d="M130.68,48.65h-2.39a.28.28,0,1,1,0-.55h2.39a.28.28,0,1,1,0,.55Z"/><g class="cls-11"><path class="cls-5" d="M141,68.69H121.65a.47.47,0,0,1-.46-.46.46.46,0,0,1,.46-.46H141a.45.45,0,0,1,.46.46A.46.46,0,0,1,141,68.69Z"/><path class="cls-5" d="M152.7,68.69h-6a.47.47,0,0,1-.46-.46.46.46,0,0,1,.46-.46h6a.45.45,0,0,1,.46.46A.46.46,0,0,1,152.7,68.69Z"/></g><rect class="cls-7" x="114.74" y="38.33" width="34.28" height="7.19" rx="3.59"/><path class="cls-8" d="M148.28,41.92a3.6,3.6,0,0,1-3.59,3.6h-4.24a3.6,3.6,0,0,0,0-7.19h4.24A3.59,3.59,0,0,1,148.28,41.92Z"/><path class="cls-9" d="M144.6,41.92a3.62,3.62,0,0,1-3.6,3.6h-4.24a3.6,3.6,0,1,0,0-7.19H141A3.6,3.6,0,0,1,144.6,41.92Z"/><path class="cls-6" d="M129.85,39.71h-12a.65.65,0,1,1,0-1.29h12a.65.65,0,1,1,0,1.29Z"/><path class="cls-5" d="M145.24,46.07H118.15a4.15,4.15,0,0,1,0-8.29h27.09a4.15,4.15,0,1,1,0,8.29Zm-27.09-7.19a3,3,0,0,0,0,6.08h27.09a3,3,0,0,0,0-6.08Z"/><circle class="cls-6" cx="119.26" cy="39.9" r="0.55"/><circle class="cls-6" cx="120.36" cy="41.19" r="0.28"/><circle class="cls-6" cx="121.1" cy="39.71" r="0.46"/><circle class="cls-6" cx="122.57" cy="41.19" r="0.28"/><circle class="cls-6" cx="123.96" cy="39.99" r="0.74"/><circle class="cls-6" cx="126.63" cy="40.63" r="0.28"/><circle class="cls-6" cx="128.29" cy="40.26" r="1.01"/><circle class="cls-6" cx="125.25" cy="41.83" r="0.37"/><path class="cls-5" d="M113.08,35.75a1.48,1.48,0,1,1,1.48-1.47A1.47,1.47,0,0,1,113.08,35.75Zm0-2.4a.93.93,0,1,0,.93.93A.93.93,0,0,0,113.08,33.35Z"/><path class="cls-5" d="M152,31.7a1.48,1.48,0,1,1,1.47-1.48A1.48,1.48,0,0,1,152,31.7Zm0-2.4a.92.92,0,1,0,.92.92A.92.92,0,0,0,152,29.3Z"/><path class="cls-5" d="M126,3a1.48,1.48,0,1,1,1.48-1.48A1.47,1.47,0,0,1,126,3Zm0-2.4a.93.93,0,0,0,0,1.85.93.93,0,0,0,.93-.93A.93.93,0,0,0,126,.55Z"/><path class="cls-12" d="M59.38,156.16h-19a1,1,0,0,1,0-2h19a1,1,0,0,1,0,2Z"/><path class="cls-12" d="M69.62,156.16H64.89a1,1,0,0,1,0-2h4.73a1,1,0,0,1,0,2Z"/><rect class="cls-13" x="29.59" y="152.23" width="161.51" height="7.67" rx="3.83"/><path class="cls-14" d="M75.55,154.51h-19a1,1,0,1,1,0-2h19a1,1,0,1,1,0,2Z"/><path class="cls-14" d="M85.79,154.51H81.05a1,1,0,1,1,0-2h4.74a1,1,0,0,1,0,2Z"/><path class="cls-12" d="M51.94,159.9H33a1,1,0,0,1,0-2h19a1,1,0,0,1,0,2Z"/><path class="cls-12" d="M62.18,159.9H57.45a1,1,0,0,1,0-2h4.73a1,1,0,1,1,0,2Z"/><path class="cls-15" d="M122,152.23h65.29a3.84,3.84,0,0,1,3.84,3.83h0a3.84,3.84,0,0,1-3.84,3.84H33.42a3.84,3.84,0,0,1-3.83-3.84h0a3.84,3.84,0,0,1,3.83-3.83h68.85"/><line class="cls-15" x1="108.84" y1="152.23" x2="112.95" y2="152.23"/><line class="cls-15" x1="116.59" y1="152.23" x2="118.71" y2="152.23"/><path class="cls-16" d="M47.23,119.33s-22,9.14-46.34-25.4c0,0,26.18-8.78,50,15.91"/><path class="cls-15" d="M11.11,106.72A91.09,91.09,0,0,1,.57,94.29s26.11-9,50.1,15.54"/><path class="cls-17" d="M41.59,116,34,120.13a36.39,36.39,0,0,1-5.69-1.59c-4.63-3.21-11.64-10.37-14.16-25.26L16,93.4c4.25,21.79,18.26,26.15,18.26,26.15l7.26-3.92C41.57,115.77,41.59,115.9,41.59,116Z"/><path class="cls-18" d="M107.33,27a5.82,5.82,0,0,1-5.83,5.83,6.26,6.26,0,0,1-1.07-.09,5.83,5.83,0,0,0,0-11.46,5.39,5.39,0,0,1,1.07-.1A5.83,5.83,0,0,1,107.33,27Z"/><line class="cls-15" x1="88.03" y1="26.62" x2="95.27" y2="26.62"/><path class="cls-15" d="M74.22,47.2V37.68a11.06,11.06,0,0,1,11-11.06"/><circle class="cls-15" cx="101.35" cy="27.02" r="5.83"/><circle class="cls-16" cx="101.35" cy="27.02" r="1.97"/><circle class="cls-19" cx="101.35" cy="27.02" r="1.97"/><path class="cls-20" d="M8.19,102.33a38.36,38.36,0,0,1-3.57-3.94"/><path class="cls-15" d="M22,115.2a55.08,55.08,0,0,1-8.36-6.12"/><path class="cls-15" d="M34.28,120.91a55,55,0,0,1-9.51-4.12"/><path class="cls-21" d="M49.27,113.37s-24.12-3.13-37.82-15.15"/><line class="cls-21" x1="22.04" y1="105.13" x2="21.07" y2="97.19"/><line class="cls-21" x1="25.46" y1="106.71" x2="20.47" y2="110.92"/><line class="cls-21" x1="29.47" y1="110.32" x2="24.48" y2="114.53"/><line class="cls-21" x1="33.69" y1="109.75" x2="32.38" y2="100.88"/><g class="cls-22"><path class="cls-23" d="M45.51,30.84H45.4a.6.6,0,0,1,0-1.2h.11a.6.6,0,1,1,0,1.2Z"/><path class="cls-23" d="M49.89,30.84h-2.4a.6.6,0,1,1,0-1.2h1.2v-6H30v6H40.85a.6.6,0,1,1,0,1.2H28.77V22.41H49.89Z"/><path class="cls-23" d="M43.77,30.84H42.71a.6.6,0,0,1,0-1.2h1.06a.6.6,0,1,1,0,1.2Z"/><path class="cls-23" d="M33.77,45.29h-5V36.86H43.63a.6.6,0,1,1,0,1.2H30v6h3.8a.6.6,0,1,1,0,1.2Z"/><path class="cls-23" d="M37.69,45.29H35.53a.6.6,0,1,1,0-1.2h2.16a.6.6,0,0,1,0,1.2Z"/><path class="cls-23" d="M39.35,45.29H39.3a.6.6,0,0,1,0-1.2h.05a.6.6,0,0,1,0,1.2Z"/><path class="cls-23" d="M49.89,45.29H41.05a.6.6,0,0,1,0-1.2h7.64v-6H46a.6.6,0,0,1,0-1.2h3.87Z"/><path class="cls-23" d="M39.77,38.06H18.65V29.64H39.77Zm-19.92-1.2H38.57v-6H19.85Z"/></g><g class="cls-22"><path class="cls-23" d="M187.86,128.16h-.11a.6.6,0,1,1,0-1.2h.11a.6.6,0,0,1,0,1.2Z"/><path class="cls-23" d="M192.24,128.16h-2.4a.6.6,0,1,1,0-1.2H191v-6H172.32v6H183.2a.6.6,0,1,1,0,1.2H171.12v-8.43h21.12Z"/><path class="cls-23" d="M186.13,128.16h-1.07a.6.6,0,1,1,0-1.2h1.07a.6.6,0,0,1,0,1.2Z"/><path class="cls-23" d="M176.12,142.62h-5v-8.43H186a.6.6,0,1,1,0,1.2H172.32v6h3.8a.6.6,0,0,1,.6.6A.6.6,0,0,1,176.12,142.62Z"/><path class="cls-23" d="M180.05,142.62h-2.17a.6.6,0,0,1-.6-.6.6.6,0,0,1,.6-.6h2.17a.6.6,0,0,1,.6.6A.6.6,0,0,1,180.05,142.62Z"/><path class="cls-23" d="M181.7,142.62h0a.6.6,0,0,1-.6-.6.6.6,0,0,1,.6-.6h0a.6.6,0,0,1,.6.6A.6.6,0,0,1,181.7,142.62Z"/><path class="cls-23" d="M192.24,142.62H183.4a.6.6,0,0,1-.6-.6.6.6,0,0,1,.6-.6H191v-6h-2.65a.6.6,0,1,1,0-1.2h3.87Z"/><path class="cls-23" d="M182.12,135.39H161V127h21.12Zm-19.92-1.2h18.72v-6H162.2Z"/></g><g class="cls-22"><path class="cls-23" d="M86.81,130.85H86.7a.6.6,0,1,1,0-1.2h.11a.6.6,0,0,1,0,1.2Z"/><path class="cls-23" d="M91.19,130.85h-2.4a.6.6,0,1,1,0-1.2H90v-6H71.27v6H82.15a.6.6,0,1,1,0,1.2H70.07v-8.43H91.19Z"/><path class="cls-23" d="M85.08,130.85H84a.6.6,0,1,1,0-1.2h1.07a.6.6,0,0,1,0,1.2Z"/><path class="cls-23" d="M75.07,145.3h-5v-8.43H84.94a.6.6,0,0,1,0,1.2H71.27v6h3.8a.6.6,0,0,1,0,1.2Z"/><path class="cls-23" d="M79,145.3H76.83a.6.6,0,0,1,0-1.2H79a.6.6,0,0,1,0,1.2Z"/><path class="cls-23" d="M80.65,145.3h0a.6.6,0,0,1,0-1.2h0a.6.6,0,0,1,0,1.2Z"/><path class="cls-23" d="M91.19,145.3H82.35a.6.6,0,0,1,0-1.2H90v-6H87.34a.6.6,0,1,1,0-1.2h3.87Z"/><path class="cls-23" d="M81.07,138.07H60v-8.42H81.07Zm-19.92-1.2H79.87v-6H61.15Z"/></g><g class="cls-22"><path class="cls-23" d="M182.35,30.84h-.11a.6.6,0,0,1,0-1.2h.11a.6.6,0,0,1,0,1.2Z"/><path class="cls-23" d="M186.73,30.84h-2.4a.6.6,0,0,1,0-1.2h1.2v-6H166.81v6h10.88a.6.6,0,0,1,0,1.2H165.61V22.41h21.12Z"/><path class="cls-23" d="M180.62,30.84h-1.07a.6.6,0,0,1,0-1.2h1.07a.6.6,0,0,1,0,1.2Z"/><path class="cls-23" d="M170.61,45.29h-5V36.86h14.87a.6.6,0,1,1,0,1.2H166.81v6h3.8a.6.6,0,1,1,0,1.2Z"/><path class="cls-23" d="M174.54,45.29h-2.17a.6.6,0,1,1,0-1.2h2.17a.6.6,0,0,1,0,1.2Z"/><path class="cls-23" d="M176.19,45.29h-.05a.6.6,0,1,1,0-1.2h.05a.6.6,0,0,1,0,1.2Z"/><path class="cls-23" d="M186.73,45.29h-8.84a.6.6,0,1,1,0-1.2h7.64v-6h-2.65a.6.6,0,1,1,0-1.2h3.87Z"/><path class="cls-23" d="M176.61,38.06H155.49V29.64h21.12Zm-19.92-1.2h18.72v-6H156.69Z"/></g><line class="cls-15" x1="107.37" y1="151.02" x2="111.49" y2="151.02"/><line class="cls-15" x1="115.12" y1="151.02" x2="117.24" y2="151.02"/><path class="cls-16" d="M34.81,119.29S12.05,112.06,15.75,70c0,0,25.67,10.16,28,44.38"/><path class="cls-24" d="M35.61,118.83l-1.22.67s-22.75-7.23-19.06-49.3A26.51,26.51,0,0,1,18,71.52C15.38,105.8,30.61,116.32,35.61,118.83Z"/><path class="cls-20" d="M15.91,81.13a38,38,0,0,1-.19-5.32"/><path class="cls-17" d="M38.37,93v26.22l-2.79,1.54V88.21A51,51,0,0,1,38.37,93Z"/><path class="cls-15" d="M15.32,86.37a90.7,90.7,0,0,1-.05-16.3S41,80,43.56,114.24"/><path class="cls-15" d="M18.2,99.88a54.11,54.11,0,0,1-2.45-10.06"/><path class="cls-15" d="M34.7,119.22s-9.64-3-15.46-16.64"/><path class="cls-21" d="M40.21,116.05s-16.43-17.94-19.16-36"/><path class="cls-25" d="M61.29,134.75a19,19,0,1,1-28.57-16.44H51.83A19,19,0,0,1,61.29,134.75Z"/><path class="cls-26" d="M61.1,134.75a19,19,0,0,1-19,19c-.63,0-1.26,0-1.87-.09a19,19,0,0,0,7.67-35.36h3.76A19,19,0,0,1,61.1,134.75Z"/><path class="cls-27" d="M57.41,134.81a19.21,19.21,0,0,1-19.35,19.07c-.64,0-1.28,0-1.91-.09A19,19,0,0,0,44,118.31h3.83A19,19,0,0,1,57.41,134.81Z"/><path class="cls-28" d="M43.56,153.7c-.5,0-1,.06-1.52.06a19,19,0,0,1-9.55-35.45h3a19,19,0,0,0,8,35.39Z"/><path class="cls-15" d="M61.29,134.75a19,19,0,1,1-28.57-16.44H51.83A19,19,0,0,1,61.29,134.75Z"/><rect class="cls-25" x="172.69" y="62.18" width="33.15" height="44.17" transform="translate(33.31 -52.12) rotate(17.17)"/><rect class="cls-15" x="172.69" y="62.18" width="33.15" height="44.17" transform="translate(33.31 -52.12) rotate(17.17)"/><line class="cls-29" x1="182.87" y1="65.3" x2="200.03" y2="70.6"/><line class="cls-29" x1="181.71" y1="69.07" x2="192.5" y2="72.4"/><rect class="cls-30" x="178.66" y="76.4" width="24.05" height="8.66" transform="translate(32.33 -52.69) rotate(17.17)"/><polygon class="cls-31" points="197.07 104.9 165.16 101.72 169.37 56.55 200.85 65.3 197.07 104.9"/><line class="cls-32" x1="176.63" y1="85.5" x2="187.42" y2="88.84"/><line class="cls-32" x1="175.59" y1="88.86" x2="186.39" y2="92.19"/><rect class="cls-6" x="163.36" y="56.72" width="33.15" height="44.17" transform="translate(8.09 -16.36) rotate(5.33)"/><rect class="cls-18" x="161.42" y="98.46" width="33.15" height="2.35" transform="translate(10.02 -16.09) rotate(5.33)"/><rect class="cls-15" x="163.36" y="56.72" width="33.15" height="44.17" transform="translate(8.09 -16.36) rotate(5.33)"/><line class="cls-32" x1="169.78" y1="61.56" x2="187.66" y2="63.22"/><line class="cls-32" x1="169.42" y1="65.49" x2="180.66" y2="66.54"/><line class="cls-32" x1="167.82" y1="82.61" x2="179.07" y2="83.66"/><line class="cls-32" x1="167.49" y1="86.11" x2="178.74" y2="87.16"/><rect class="cls-33" x="168.58" y="70.73" width="24.05" height="8.66" transform="translate(7.75 -16.44) rotate(5.33)"/><path class="cls-34" d="M47.15,36.92H172.88a4.88,4.88,0,0,1,4.88,4.88v88.56a4.63,4.63,0,0,1-4.63,4.63H46.91a4.63,4.63,0,0,1-4.63-4.63V41.8A4.88,4.88,0,0,1,47.15,36.92Z"/><path class="cls-15" d="M47.15,36.92H172.88a4.88,4.88,0,0,1,4.88,4.88v88.56a4.63,4.63,0,0,1-4.63,4.63H46.91a4.63,4.63,0,0,1-4.63-4.63V41.8A4.88,4.88,0,0,1,47.15,36.92Z"/><path class="cls-35" d="M131,151.68H91.15a2.64,2.64,0,0,1-2.45-3.62l7.39-18.55,15-4.11,15,4.11,7.39,18.55A2.64,2.64,0,0,1,131,151.68Z"/><path class="cls-15" d="M131,151.68H91.15a2.64,2.64,0,0,1-2.45-3.62l7.39-18.55,15-4.11,15,4.11,7.39,18.55A2.64,2.64,0,0,1,131,151.68Z"/><path class="cls-36" d="M126.31,151.68H86.44A2.64,2.64,0,0,1,84,148.06l7.39-18.55,15-4.11,15,4.11,7.38,18.55A2.64,2.64,0,0,1,126.31,151.68Z"/><polygon class="cls-35" points="124.41 137.22 88.77 137.22 89.12 134.86 124.06 134.86 124.41 137.22"/><circle class="cls-35" cx="92.13" cy="137.57" r="1.25"/><circle class="cls-35" cx="95.91" cy="139.24" r="0.64"/><circle class="cls-35" cx="93.21" cy="141.6" r="0.83"/><path class="cls-15" d="M126.31,151.68H86.44A2.64,2.64,0,0,1,84,148.06l7.39-18.55,15-4.11,15,4.11,7.38,18.55A2.64,2.64,0,0,1,126.31,151.68Z"/><path class="cls-36" d="M126.31,151.68H86.44A2.64,2.64,0,0,1,84,148.06l7.39-18.55,15-4.11,15,4.11,7.38,18.55A2.64,2.64,0,0,1,126.31,151.68Z"/><path class="cls-15" d="M126.31,151.68H86.44A2.64,2.64,0,0,1,84,148.06l7.39-18.55,15-4.11,15,4.11,7.38,18.55A2.64,2.64,0,0,1,126.31,151.68Z"/><path class="cls-36" d="M126.31,151.68H86.44A2.64,2.64,0,0,1,84,148.06l7.39-18.55,15-4.11,15,4.11,7.38,18.55A2.64,2.64,0,0,1,126.31,151.68Z"/><path class="cls-15" d="M126.31,151.68H86.44A2.64,2.64,0,0,1,84,148.06l7.39-18.55,15-4.11,15,4.11,7.38,18.55A2.64,2.64,0,0,1,126.31,151.68Z"/><path class="cls-36" d="M126.31,151.68H86.44A2.64,2.64,0,0,1,84,148.06l7.39-18.55,15-4.11,15,4.11,7.38,18.55A2.64,2.64,0,0,1,126.31,151.68Z"/><path class="cls-15" d="M126.31,151.68H86.44A2.64,2.64,0,0,1,84,148.06l7.39-18.55,15-4.11,15,4.11,7.38,18.55A2.64,2.64,0,0,1,126.31,151.68Z"/><path class="cls-36" d="M126.31,151.68H86.44A2.64,2.64,0,0,1,84,148.06l7.39-18.55,15-4.11,15,4.11,7.38,18.55A2.64,2.64,0,0,1,126.31,151.68Z"/><path class="cls-15" d="M126.31,151.68H86.44A2.64,2.64,0,0,1,84,148.06l7.39-18.55,15-4.11,15,4.11,7.38,18.55A2.64,2.64,0,0,1,126.31,151.68Z"/><path class="cls-36" d="M126.31,151.68H86.44A2.64,2.64,0,0,1,84,148.06l7.39-18.55,15-4.11,15,4.11,7.38,18.55A2.64,2.64,0,0,1,126.31,151.68Z"/><path class="cls-15" d="M126.31,151.68H86.44A2.64,2.64,0,0,1,84,148.06l7.39-18.55,15-4.11,15,4.11,7.38,18.55A2.64,2.64,0,0,1,126.31,151.68Z"/><path class="cls-36" d="M126.31,151.68H86.44A2.64,2.64,0,0,1,84,148.06l7.39-18.55,15-4.11,15,4.11,7.38,18.55A2.64,2.64,0,0,1,126.31,151.68Z"/><path class="cls-15" d="M126.31,151.68H86.44A2.64,2.64,0,0,1,84,148.06l7.39-18.55,15-4.11,15,4.11,7.38,18.55A2.64,2.64,0,0,1,126.31,151.68Z"/><path class="cls-36" d="M126.31,151.68H86.44A2.64,2.64,0,0,1,84,148.06l7.39-18.55,15-4.11,15,4.11,7.38,18.55A2.64,2.64,0,0,1,126.31,151.68Z"/><path class="cls-15" d="M126.31,151.68H86.44A2.64,2.64,0,0,1,84,148.06l7.39-18.55,15-4.11,15,4.11,7.38,18.55A2.64,2.64,0,0,1,126.31,151.68Z"/><path class="cls-36" d="M126.31,151.68H86.44A2.64,2.64,0,0,1,84,148.06l7.39-18.55,15-4.11,15,4.11,7.38,18.55A2.64,2.64,0,0,1,126.31,151.68Z"/><path class="cls-15" d="M126.31,151.68H86.44A2.64,2.64,0,0,1,84,148.06l7.39-18.55,15-4.11,15,4.11,7.38,18.55A2.64,2.64,0,0,1,126.31,151.68Z"/><path class="cls-36" d="M126.31,151.68H86.44A2.64,2.64,0,0,1,84,148.06l7.39-18.55,15-4.11,15,4.11,7.38,18.55A2.64,2.64,0,0,1,126.31,151.68Z"/><path class="cls-15" d="M126.31,151.68H86.44A2.64,2.64,0,0,1,84,148.06l7.39-18.55,15-4.11,15,4.11,7.38,18.55A2.64,2.64,0,0,1,126.31,151.68Z"/><path class="cls-36" d="M126.31,151.68H86.44A2.64,2.64,0,0,1,84,148.06l7.39-18.55,15-4.11,15,4.11,7.38,18.55A2.64,2.64,0,0,1,126.31,151.68Z"/><path class="cls-15" d="M126.31,151.68H86.44A2.64,2.64,0,0,1,84,148.06l7.39-18.55,15-4.11,15,4.11,7.38,18.55A2.64,2.64,0,0,1,126.31,151.68Z"/><path class="cls-36" d="M126.31,151.68H86.44A2.64,2.64,0,0,1,84,148.06l7.39-18.55,15-4.11,15,4.11,7.38,18.55A2.64,2.64,0,0,1,126.31,151.68Z"/><path class="cls-15" d="M126.31,151.68H86.44A2.64,2.64,0,0,1,84,148.06l7.39-18.55,15-4.11,15,4.11,7.38,18.55A2.64,2.64,0,0,1,126.31,151.68Z"/><path class="cls-36" d="M126.31,151.68H86.44A2.64,2.64,0,0,1,84,148.06l7.39-18.55,15-4.11,15,4.11,7.38,18.55A2.64,2.64,0,0,1,126.31,151.68Z"/><path class="cls-15" d="M126.31,151.68H86.44A2.64,2.64,0,0,1,84,148.06l7.39-18.55,15-4.11,15,4.11,7.38,18.55A2.64,2.64,0,0,1,126.31,151.68Z"/><path class="cls-36" d="M126.31,151.68H86.44A2.64,2.64,0,0,1,84,148.06l7.39-18.55,15-4.11,15,4.11,7.38,18.55A2.64,2.64,0,0,1,126.31,151.68Z"/><path class="cls-15" d="M126.31,151.68H86.44A2.64,2.64,0,0,1,84,148.06l7.39-18.55,15-4.11,15,4.11,7.38,18.55A2.64,2.64,0,0,1,126.31,151.68Z"/><path class="cls-36" d="M126.31,151.68H86.44A2.64,2.64,0,0,1,84,148.06l7.39-18.55,15-4.11,15,4.11,7.38,18.55A2.64,2.64,0,0,1,126.31,151.68Z"/><path class="cls-15" d="M126.31,151.68H86.44A2.64,2.64,0,0,1,84,148.06l7.39-18.55,15-4.11,15,4.11,7.38,18.55A2.64,2.64,0,0,1,126.31,151.68Z"/><path class="cls-37" d="M126.31,151.68H86.44A2.64,2.64,0,0,1,84,148.06l7.39-18.55,15-4.11,15,4.11,7.38,18.55A2.64,2.64,0,0,1,126.31,151.68Z"/><path class="cls-15" d="M126.31,151.68H86.44A2.64,2.64,0,0,1,84,148.06l7.39-18.55,15-4.11,15,4.11,7.38,18.55A2.64,2.64,0,0,1,126.31,151.68Z"/><path class="cls-38" d="M42.51,37H168.24a4.88,4.88,0,0,1,4.88,4.88v88.56a4.63,4.63,0,0,1-4.63,4.63H42.27a4.63,4.63,0,0,1-4.63-4.63V41.87A4.88,4.88,0,0,1,42.51,37Z"/><path class="cls-39" d="M173,41.87v3A4.87,4.87,0,0,0,168.09,40H42.36a4.88,4.88,0,0,0-4.88,4.87v-3A4.89,4.89,0,0,1,42.36,37H168.09A4.88,4.88,0,0,1,173,41.87Z"/><path class="cls-37" d="M173.12,119.09v11.34a4.63,4.63,0,0,1-4.64,4.63H42.27a4.63,4.63,0,0,1-4.63-4.63V119.09Z"/><rect class="cls-35" x="37.69" y="118.85" width="135.48" height="2.5"/><path class="cls-40" d="M173.17,116.59v2.5H37.69s-1.08-7,.23-6.76C61,116.5,173.17,116.59,173.17,116.59Z"/><rect class="cls-41" x="44.61" y="44.77" width="121.65" height="67.66"/><line class="cls-15" x1="37.69" y1="89.04" x2="37.69" y2="55.36"/><line class="cls-15" x1="173.17" y1="72.61" x2="173.17" y2="77.59"/><line class="cls-15" x1="173.17" y1="59.78" x2="173.17" y2="69.16"/><path class="cls-15" d="M37.69,51.67v-9.8A4.89,4.89,0,0,1,42.57,37H168.3a4.88,4.88,0,0,1,4.87,4.88V56"/><line class="cls-42" x1="37.69" y1="119.09" x2="173.17" y2="119.09"/><rect class="cls-43" x="44.61" y="109.65" width="121.65" height="2.78"/><polygon class="cls-44" points="96.71 112.42 93.93 112.42 111.05 44.77 113.83 44.77 96.71 112.42"/><polygon class="cls-45" points="90.6 112.42 87.82 112.42 104.94 44.77 107.72 44.77 90.6 112.42"/><polygon class="cls-6" points="109.13 112.42 100.65 112.42 117.76 44.77 126.25 44.77 109.13 112.42"/><line class="cls-15" x1="44.61" y1="72.98" x2="44.61" y2="66.43"/><circle class="cls-46" cx="155.22" cy="116" r="0.71"/><circle class="cls-46" cx="156.56" cy="115.5" r="0.21"/><circle class="cls-46" cx="155.52" cy="114.63" r="0.21"/><circle class="cls-46" cx="153.48" cy="114.61" r="0.49"/><circle class="cls-46" cx="152.79" cy="116.05" r="0.43"/><circle class="cls-46" cx="151.57" cy="115.06" r="0.22"/><circle class="cls-46" cx="152.06" cy="114.09" r="0.27"/><circle class="cls-46" cx="149.96" cy="115.75" r="0.46"/><circle class="cls-46" cx="158.19" cy="115.13" r="0.29"/><circle class="cls-46" cx="157.11" cy="114.25" r="0.17"/><circle class="cls-46" cx="158.38" cy="113.66" r="0.29"/><circle class="cls-46" cx="157.06" cy="114.89" r="0.2"/><circle class="cls-46" cx="156.07" cy="113.66" r="0.22"/><circle class="cls-46" cx="154.65" cy="113.33" r="0.33"/><circle class="cls-46" cx="154.92" cy="114.16" r="0.07"/><circle class="cls-46" cx="154.61" cy="114.85" r="0.11"/><circle class="cls-46" cx="158.18" cy="116.32" r="0.46"/><circle class="cls-46" cx="160.04" cy="115.77" r="0.36"/><circle class="cls-46" cx="161.86" cy="116.37" r="0.75"/><circle class="cls-46" cx="164.13" cy="116.42" r="0.8"/><circle class="cls-46" cx="165.55" cy="116.09" r="0.35"/><circle class="cls-46" cx="164.26" cy="114.97" r="0.12"/><circle class="cls-46" cx="162.51" cy="114.36" r="0.27"/><circle class="cls-46" cx="161.38" cy="113.98" r="0.27"/><circle class="cls-46" cx="160.41" cy="114.32" r="0.37"/><circle class="cls-46" cx="159.41" cy="114.63" r="0.27"/><circle class="cls-46" cx="162.08" cy="115.23" r="0.16"/><circle class="cls-43" cx="141.05" cy="108.61" r="1.35"/><circle class="cls-43" cx="143.59" cy="107.66" r="0.4"/><circle class="cls-43" cx="141.62" cy="106.01" r="0.4"/><circle class="cls-43" cx="137.74" cy="105.97" r="0.93"/><circle class="cls-43" cx="136.42" cy="108.71" r="0.82"/><circle class="cls-43" cx="134.1" cy="106.84" r="0.42"/><circle class="cls-43" cx="135.03" cy="104.98" r="0.51"/><circle class="cls-43" cx="131.03" cy="108.13" r="0.88"/><circle class="cls-43" cx="146.71" cy="106.96" r="0.55"/><circle class="cls-43" cx="144.64" cy="105.29" r="0.32"/><circle class="cls-43" cx="147.06" cy="104.16" r="0.55"/><circle class="cls-43" cx="144.54" cy="106.51" r="0.38"/><circle class="cls-43" cx="142.66" cy="104.16" r="0.43"/><circle class="cls-43" cx="139.97" cy="103.53" r="0.63"/><circle class="cls-43" cx="140.47" cy="105.12" r="0.14"/><circle class="cls-43" cx="139.89" cy="106.43" r="0.2"/><circle class="cls-43" cx="146.68" cy="109.22" r="0.88"/><circle class="cls-43" cx="150.21" cy="108.19" r="0.68"/><circle class="cls-43" cx="153.67" cy="109.32" r="1.43"/><circle class="cls-43" cx="158.01" cy="109.42" r="1.53"/><circle class="cls-43" cx="160.71" cy="108.8" r="0.67"/><circle class="cls-43" cx="158.25" cy="106.66" r="0.24"/><circle class="cls-43" cx="154.93" cy="105.5" r="0.52"/><circle class="cls-43" cx="152.77" cy="104.77" r="0.52"/><circle class="cls-43" cx="150.93" cy="105.42" r="0.71"/><circle class="cls-43" cx="149.02" cy="106.01" r="0.52"/><circle class="cls-43" cx="154.1" cy="107.15" r="0.31"/><circle class="cls-35" cx="58.22" cy="123.61" r="0.64"/><line class="cls-42" x1="52.76" y1="94.47" x2="48.76" y2="103.72"/><line class="cls-42" x1="54.13" y1="97.26" x2="52.13" y2="101.88"/><circle class="cls-47" cx="51.33" cy="58.27" r="0.68"/><line class="cls-19" x1="175.59" y1="107.06" x2="175.59" y2="116.92"/><line class="cls-19" x1="175.59" y1="118.77" x2="175.59" y2="120.35"/><line class="cls-15" x1="173.12" y1="81.58" x2="173.12" y2="84.26"/><circle class="cls-35" cx="54.26" cy="122.22" r="2.12"/><circle class="cls-35" cx="56.52" cy="126.39" r="1.06"/><circle class="cls-35" cx="50.39" cy="124.35" r="1.05"/><circle class="cls-6" cx="105.38" cy="127.63" r="4.02"/><path class="cls-15" d="M109.15,125.39a4.35,4.35,0,1,1-3.72-2.09"/><line class="cls-42" x1="88.47" y1="143.56" x2="87.41" y2="146.36"/><line class="cls-42" x1="90.13" y1="139.17" x2="89.5" y2="140.84"/><line class="cls-48" x1="59.55" y1="109.65" x2="72.3" y2="109.65"/><line class="cls-49" x1="106.38" y1="40.1" x2="119.12" y2="40.1"/><line class="cls-49" x1="141.52" y1="40.1" x2="147.42" y2="40.1"/><line class="cls-50" x1="43.77" y1="86.97" x2="43.77" y2="101.3"/><line class="cls-50" x1="166.98" y1="55.56" x2="166.98" y2="69.89"/><line class="cls-50" x1="166.98" y1="89.73" x2="166.98" y2="104.06"/><line class="cls-51" x1="165.24" y1="75.66" x2="165.24" y2="90"/><line class="cls-51" x1="165.24" y1="47.63" x2="165.24" y2="50.55"/><path class="cls-35" d="M145.45,135h-2.92a1,1,0,0,1,0-2h2.92a1,1,0,0,1,0,2Z"/><line class="cls-51" x1="45.55" y1="103.01" x2="45.55" y2="105.93"/><line class="cls-51" x1="45.55" y1="45.74" x2="45.55" y2="48.66"/><polyline class="cls-42" points="44.61 62.1 44.61 44.77 166.26 44.77 166.26 112.42 44.61 112.42 44.61 76.11"/><path class="cls-52" d="M172.32,127.55v3.55a4.11,4.11,0,0,1-3.85,3.7h-6.26"/><line class="cls-53" x1="53.78" y1="133.97" x2="47.52" y2="133.97"/><path class="cls-15" d="M164.29,135.06h-122a4.63,4.63,0,0,1-4.63-4.63V92.59"/><path class="cls-15" d="M173.17,88.18v42.25a4.63,4.63,0,0,1-4.63,4.63"/><path class="cls-37" d="M147.76,151.87a6.75,6.75,0,0,1,13.49,0"/><path class="cls-35" d="M161.26,151.87H150.11a22.57,22.57,0,0,0,8.18-5.59A6.73,6.73,0,0,1,161.26,151.87Z"/><path class="cls-15" d="M151.3,145.94a6.65,6.65,0,0,1,3.21-.81,6.74,6.74,0,0,1,6.74,6.74"/><path class="cls-15" d="M147.76,151.87a6.72,6.72,0,0,1,1.5-4.24"/><rect class="cls-35" x="79.3" y="149.07" width="61.99" height="3.91"/><rect class="cls-15" x="79.3" y="149.07" width="61.99" height="3.91"/><rect class="cls-37" x="72.75" y="149.07" width="61.99" height="3.91"/><rect class="cls-15" x="72.75" y="149.07" width="61.99" height="3.91"/><path class="cls-43" d="M45.05,53.54h86.83a.64.64,0,0,1,.64.64v29.1a.64.64,0,0,1-.64.64H45.05a0,0,0,0,1,0,0V53.54A0,0,0,0,1,45.05,53.54Z"/><rect class="cls-6" x="25.72" y="51.2" width="104.19" height="30.39"/><rect class="cls-18" x="25.72" y="78.59" width="104.19" height="2.99"/><line class="cls-15" x1="25.72" y1="72.98" x2="25.72" y2="64.95"/><polyline class="cls-15" points="25.72 62.09 25.72 51.2 129.91 51.2 129.91 81.58 25.72 81.58 25.72 77.54"/><rect class="cls-25" x="33.3" y="68.77" width="57.63" height="2.85" rx="1.43"/><rect class="cls-54" x="33.3" y="62.09" width="26.25" height="2.85" rx="1.43"/><rect class="cls-55" x="65.04" y="62.09" width="53.48" height="2.85" rx="1.43"/><line class="cls-19" x1="29.71" y1="54.74" x2="31.25" y2="56.55"/><line class="cls-19" x1="31.25" y1="54.74" x2="29.71" y2="56.55"/><circle class="cls-28" cx="26.84" cy="138.99" r="1.77"/><circle class="cls-56" cx="27.36" cy="136.04" r="0.52"/><circle class="cls-56" cx="26.31" cy="132.78" r="0.56"/><circle class="cls-56" cx="29.63" cy="140.55" r="0.42"/><circle class="cls-57" cx="29.07" cy="137.67" r="0.45"/><circle class="cls-28" cx="27.89" cy="142.25" r="0.82"/><circle class="cls-57" cx="28.53" cy="136.29" r="0.25"/><circle class="cls-28" cx="26.3" cy="134.99" r="0.55"/><path class="cls-20" d="M26.84,129.41a20.57,20.57,0,0,1,2.36-5.06"/><line class="cls-21" x1="24.7" y1="92.19" x2="29.07" y2="85.5"/><line class="cls-21" x1="26.3" y1="95.61" x2="19.77" y2="95.61"/><line class="cls-21" x1="33.74" y1="108.8" x2="27.21" y2="108.8"/><line class="cls-21" x1="30.63" y1="103.24" x2="35.35" y2="95.61"/><path class="cls-12" d="M51.64,156.16h-19a1,1,0,0,1,0-2h19a1,1,0,1,1,0,2Z"/><path class="cls-12" d="M61.88,156.16H57.15a1,1,0,0,1,0-2h4.73a1,1,0,0,1,0,2Z"/><rect class="cls-58" x="22.99" y="152.23" width="161.51" height="7.67" rx="3.83"/><path class="cls-59" d="M184.5,156.25a3.82,3.82,0,0,1-3.83,3.83H26.83A3.84,3.84,0,0,1,23,156.25a3.78,3.78,0,0,1,.52-1.92,3.82,3.82,0,0,0,3.32,1.92H180.67a3.83,3.83,0,0,0,2.71-1.13,4,4,0,0,0,.61-.79A3.87,3.87,0,0,1,184.5,156.25Z"/><path class="cls-14" d="M67.81,154.51h-19a1,1,0,1,1,0-2h19a1,1,0,1,1,0,2Z"/><path class="cls-14" d="M78.05,154.51H73.31a1,1,0,1,1,0-2h4.74a1,1,0,1,1,0,2Z"/><path class="cls-12" d="M44.21,159.9h-19a1,1,0,0,1,0-2h19a1,1,0,0,1,0,2Z"/><path class="cls-12" d="M54.44,159.9H49.71a1,1,0,0,1,0-2h4.73a1,1,0,0,1,0,2Z"/><path class="cls-15" d="M115.37,152.23h65.3a3.84,3.84,0,0,1,3.83,3.83h0a3.84,3.84,0,0,1-3.83,3.84H26.83A3.84,3.84,0,0,1,23,156.06h0a3.84,3.84,0,0,1,3.84-3.83H95.67"/><line class="cls-15" x1="101.1" y1="152.23" x2="105.22" y2="152.23"/><line class="cls-15" x1="108.85" y1="152.23" x2="110.97" y2="152.23"/><path class="cls-60" d="M154.71,143.49H138l-.56-.94c-2.38-4-3.31-13.72-2.62-18.32h16.73c-.69,4.6.24,14.33,2.62,18.32Z"/><path class="cls-61" d="M152.69,141.48a.55.55,0,0,1-.49-.33,27.63,27.63,0,0,1-1.54-6.21.53.53,0,0,1,.46-.59.54.54,0,0,1,.59.46,26.9,26.9,0,0,0,1.47,5.93.53.53,0,0,1-.28.7A.78.78,0,0,1,152.69,141.48Z"/><path class="cls-62" d="M140.17,143.92h-1.89l-.56-.93c-2.39-4-3.31-13.72-2.62-18.32H137c-.69,4.6-1.4,18.82,17.42,18.82Z"/><line class="cls-15" x1="136.89" y1="127.44" x2="148.77" y2="127.44"/><line class="cls-15" x1="137.15" y1="130.4" x2="146.38" y2="130.4"/><path class="cls-6" d="M135.54,133.94a.55.55,0,0,1-.43-.41,27.81,27.81,0,0,1-.52-6.37.53.53,0,0,1,1.06,0,27.32,27.32,0,0,0,.49,6.09.53.53,0,0,1-.39.64A.74.74,0,0,1,135.54,133.94Z"/><path class="cls-6" d="M137.86,142.61a.54.54,0,0,1-.51-.3,27.19,27.19,0,0,1-1.92-6.1.52.52,0,0,1,.42-.62.54.54,0,0,1,.62.43,26.65,26.65,0,0,0,1.84,5.82.54.54,0,0,1-.25.71A.47.47,0,0,1,137.86,142.61Z"/><path class="cls-15" d="M145.48,143.49H138l-.56-.94c-2.38-4-3.31-13.72-2.62-18.32h3.78"/><path class="cls-15" d="M141.24,124.23h10.29c-.69,4.6.24,14.33,2.62,18.32l.56.94h-4.85"/><circle class="cls-26" cx="56.54" cy="139.86" r="1.07"/><circle class="cls-26" cx="54.6" cy="144.53" r="0.44"/><circle class="cls-26" cx="54.72" cy="142.53" r="0.23"/><g class="cls-63"><circle class="cls-26" cx="53.55" cy="141.72" r="0.23"/><circle class="cls-26" cx="54.42" cy="140.69" r="0.64"/><circle class="cls-26" cx="53.31" cy="143.17" r="0.64"/></g><g class="cls-64"><circle class="cls-26" cx="49.68" cy="143.83" r="0.23"/><circle class="cls-26" cx="50.72" cy="142.97" r="0.64"/><circle class="cls-26" cx="49.19" cy="145.22" r="0.64"/></g><line class="cls-65" x1="92.3" y1="136.34" x2="121.59" y2="136.34"/><path class="cls-66" d="M137.69,134.6a22.37,22.37,0,0,0,1.56,5.23"/><line class="cls-66" x1="47.47" y1="91.44" x2="47.47" y2="86.32"/><circle class="cls-6" cx="47.47" cy="94.91" r="0.92"/><line class="cls-66" x1="34.64" y1="156.16" x2="29.52" y2="156.16"/><circle class="cls-6" cx="38.11" cy="156.16" r="0.92"/><circle class="cls-67" cx="58.44" cy="27.35" r="2.29"/><circle class="cls-67" cx="208.61" cy="96.89" r="2.29"/><circle class="cls-68" cx="19.24" cy="122.42" r="2.29"/><circle class="cls-68" cx="186.39" cy="50.55" r="2.29"/><circle class="cls-25" cx="162.51" cy="142.53" r="1.15"/><circle class="cls-16" cx="169.42" cy="148.5" r="1.15"/><circle class="cls-16" cx="194.34" cy="50.24" r="1.15"/><circle class="cls-69" cx="22.02" cy="49.09" r="1.15"/><circle class="cls-69" cx="65.04" cy="144.7" r="1.15"/><circle class="cls-69" cx="181.08" cy="111.84" r="1.15"/></g></g></svg>